<svg width="101" height="99" viewBox="0 0 101 99" fill="none" xmlns="http://www.w3.org/2000/svg">
<path d="M64.25 48C63.5833 47.8333 63.125 47.9583 62.875 48.375C63.2083 49.2083 63.5417 50.0417 63.875 50.875C64.2917 51.625 64.625 52.375 64.875 53.125C64.4583 54.2917 63.9583 55.4583 63.375 56.625C62.7917 57.7083 62.0417 58.6667 61.125 59.5C60.875 59.9167 60.5417 60.4167 60.125 61C59.7917 61.5 59.5417 62 59.375 62.5C59.0417 63.75 58.625 64.75 58.125 65.5C57.625 66.1667 57.1667 66.7917 56.75 67.375C56.4167 67.7917 55.9167 68.5833 55.25 69.75C54.5833 70.8333 53.875 72.0417 53.125 73.375C52.4583 74.7083 51.7917 76 51.125 77.25C50.5417 78.4167 50.125 79.2917 49.875 79.875C49.2917 80.2083 48.875 80.625 48.625 81.125C48.375 81.625 48.0833 82.1667 47.75 82.75C47.5833 83.9167 47.125 84.8333 46.375 85.5C45.625 86.1667 45.0417 87.0417 44.625 88.125C44.7083 88.625 44.7917 89.125 44.875 89.625C45.0417 90.0417 45.1667 90.5 45.25 91C44.5833 91.25 44.0833 91.5417 43.75 91.875C43.5 92.125 43.0417 92.2083 42.375 92.125C41.625 93.125 41 94.2083 40.5 95.375C40.0833 96.5417 39.2917 97.4583 38.125 98.125C37.7083 98.0417 37.375 97.875 37.125 97.625C36.9583 97.4583 36.7083 97.2917 36.375 97.125C35.875 97.2917 35.3333 97.4167 34.75 97.5C34.25 97.6667 33.7083 97.75 33.125 97.75C32.7917 97.75 32.5 97.5833 32.25 97.25C32 96.9167 31.7917 96.6667 31.625 96.5C31.0417 96.25 30.625 96.0417 30.375 95.875C30.125 95.7083 29.8333 95.5417 29.5 95.375C29.3333 94.875 29 94.4167 28.5 94C27.5833 93.9167 26.9167 93.5833 26.5 93C26.0833 92.4167 25.7917 91.75 25.625 91C26.0417 90.25 26.2917 89.5417 26.375 88.875C25.7083 87.4583 24.9167 86.1667 24 85C23.1667 83.8333 22.2917 82.625 21.375 81.375C20.7917 80.625 20.25 79.875 19.75 79.125C19.25 78.2917 18.7083 77.4167 18.125 76.5C17.7083 76.0833 17.3333 75.75 17 75.5C16.75 75.1667 16.5 74.7917 16.25 74.375C14.6667 72.0417 13.1667 69.625 11.75 67.125C10.4167 64.625 8.79167 62.2917 6.875 60.125C6.20833 59.2917 5.54167 58.5 4.875 57.75C4.29167 57 3.66667 56.2083 3 55.375C2.75 55.2917 2.5 55.2083 2.25 55.125C2 54.9583 1.70833 54.7917 1.375 54.625C1.125 54.2083 0.875 53.8333 0.625 53.5C0.458333 53.0833 0.333333 52.625 0.25 52.125C0.5 51.7083 0.75 51.25 1 50.75C1.25 50.1667 1.5 49.625 1.75 49.125C1.91667 48.7083 2.08333 48.2917 2.25 47.875C2.41667 47.4583 2.58333 47.0417 2.75 46.625C3.25 45.4583 3.79167 44.3333 4.375 43.25C4.95833 42.1667 5.58333 41.125 6.25 40.125C7.25 38.7083 8.16667 37.2917 9 35.875C9.91667 34.4583 10.875 33.0833 11.875 31.75C12.0417 31 12.4167 30.2917 13 29.625C13.5833 28.9583 14 28.25 14.25 27.5C15.0833 26.4167 15.8333 25.2917 16.5 24.125C17.1667 22.9583 17.8333 21.7917 18.5 20.625C19 20.125 19.375 19.5833 19.625 19C19.9583 18.3333 20.375 17.75 20.875 17.25C21.125 16.5833 21.4167 16 21.75 15.5C22.1667 15 22.4583 14.375 22.625 13.625C23.125 13.125 23.625 12.5 24.125 11.75C24.625 11 25.125 10.2083 25.625 9.375C26.125 8.54167 26.5833 7.75 27 7C27.4167 6.16667 27.7917 5.45833 28.125 4.875C28.7917 4.625 29.25 4.20833 29.5 3.625C29.8333 2.95833 30.3333 2.45833 31 2.125C31.0833 1.79167 31.2083 1.54167 31.375 1.375C31.5417 1.125 31.6667 0.833333 31.75 0.5C32.75 0.833333 33.625 1 34.375 1C34.7083 1.16667 34.9167 1.41667 35 1.75C35.1667 2 35.4583 2.16667 35.875 2.25C36.2917 2.08333 36.5417 1.83333 36.625 1.5C36.7917 1.08333 37.0417 0.708333 37.375 0.375C37.7917 0.375 38.125 0.5 38.375 0.75C38.7083 0.916667 39.0833 1.08333 39.5 1.25C40.1667 2.16667 40.75 3.125 41.25 4.125C41.8333 5.04167 42.375 5.95833 42.875 6.875C43.125 7.20833 43.3333 7.58333 43.5 8C43.6667 8.41667 43.8333 8.79167 44 9.125C44.6667 10.0417 45.2917 11 45.875 12C46.5417 12.9167 47.1667 13.8333 47.75 14.75C48.6667 15.9167 49.5417 17.1667 50.375 18.5C51.2083 19.75 52 21.0417 52.75 22.375C53.75 24.2083 54.6667 25.9583 55.5 27.625C56.3333 29.2083 57.3333 30.9583 58.5 32.875C59 33.7083 59.5417 34.5417 60.125 35.375C60.7083 36.125 61.2917 36.875 61.875 37.625C62.4583 38.4583 62.9583 39.2917 63.375 40.125C63.875 40.9583 64.4167 41.75 65 42.5C65.0833 43.0833 65.25 43.6667 65.5 44.25C65.8333 44.75 66 45.3333 66 46C66 46.4167 65.7917 46.8333 65.375 47.25C64.9583 47.5833 64.5833 47.8333 64.25 48ZM48.25 51.25C49.5833 49.8333 50.5417 48.25 51.125 46.5C50.875 46.0833 50.5833 45.7083 50.25 45.375C50 44.9583 49.6667 44.5417 49.25 44.125C48.5833 43.2917 47.7083 42.0833 46.625 40.5C45.5417 38.9167 44.7083 37.6667 44.125 36.75L43 34.125C42.5833 33.2083 42.125 32.375 41.625 31.625C41.2083 30.7917 40.7917 29.9167 40.375 29C40.2083 28.5833 40.0417 28.1667 39.875 27.75C39.7083 27.3333 39.5 26.9167 39.25 26.5C38.9167 26.0833 38.5833 25.7083 38.25 25.375C37.9167 25.0417 37.6667 24.5417 37.5 23.875C37.25 23.625 37 23.375 36.75 23.125C36.5833 22.875 36.4167 22.5417 36.25 22.125C34.4167 24.625 32.8333 27 31.5 29.25C30.25 31.4167 28.9167 33.625 27.5 35.875C26.8333 36.875 26.1667 37.875 25.5 38.875C24.8333 39.875 24.2083 40.9583 23.625 42.125C23.2917 42.7917 22.8333 43.5417 22.25 44.375C21.6667 45.125 21.0833 45.9583 20.5 46.875C19.9167 47.7083 19.375 48.5417 18.875 49.375C18.375 50.2083 18.0833 50.7917 18 51.125C19.0833 53.0417 20.125 54.625 21.125 55.875C22.125 57.125 23.0833 58.4583 24 59.875C24.75 61.4583 25.5417 62.9167 26.375 64.25C26.7917 64.9167 27.25 65.5833 27.75 66.25C28.3333 66.9167 28.8333 67.625 29.25 68.375C30.25 69.4583 31.0833 70.625 31.75 71.875C32.5 73.125 33.4583 74.25 34.625 75.25C35.5417 74 36.375 72.7083 37.125 71.375C37.875 69.9583 38.6667 68.5417 39.5 67.125C40.3333 65.7083 41.125 64.3333 41.875 63C42.625 61.6667 43.2917 60.2083 43.875 58.625C44.2083 58.4583 44.4583 58.2917 44.625 58.125C44.7917 57.9583 44.9583 57.7917 45.125 57.625C45.5417 56.4583 46.0417 55.4167 46.625 54.5C47.2917 53.5 47.8333 52.4167 48.25 51.25ZM40.5 43C41 43.9167 41.5417 44.8333 42.125 45.75C42.7917 46.5833 43.4583 47.4167 44.125 48.25C44.375 48.4167 44.6667 48.625 45 48.875C45.3333 49.0417 45.5 49.3333 45.5 49.75C45.5 50.0833 45.2917 50.4583 44.875 50.875C44.4583 51.2917 44.2083 51.75 44.125 52.25C43.7083 52.5 43.375 52.7917 43.125 53.125C42.875 53.4583 42.5833 53.8333 42.25 54.25C41.75 54.0833 41.3333 54.0833 41 54.25C40.6667 54.4167 40.2917 54.5 39.875 54.5C38.9583 55 38.375 55.375 38.125 55.625C37.9583 55.7917 37.75 56 37.5 56.25C37.3333 56.5 37.0833 56.75 36.75 57C36.5 57.25 36.0417 57.4583 35.375 57.625C34.625 58.2917 34.1667 58.6667 34 58.75C33.6667 58.75 33.375 58.7083 33.125 58.625C32.9583 58.4583 32.75 58.3333 32.5 58.25C32.1667 58 31.5833 57.4167 30.75 56.5C30 55.5 29.2083 54.4583 28.375 53.375C27.5417 52.2083 26.7917 51.125 26.125 50.125C25.5417 49.125 25.25 48.4167 25.25 48C25.75 47.1667 26.0833 46.6667 26.25 46.5C26.4167 46.25 26.7083 46.125 27.125 46.125C27.7917 45.875 28.25 45.5833 28.5 45.25C28.75 44.9167 28.9583 44.625 29.125 44.375C29.375 44.0417 29.6667 43.7917 30 43.625C30.3333 43.375 30.8333 43.125 31.5 42.875C32.1667 41.9583 32.625 41.4167 32.875 41.25C33.125 41.0833 33.4583 41 33.875 41C34.2917 40.6667 34.5 40.25 34.5 39.75C34.5833 39.1667 34.9583 38.9167 35.625 39C36.875 39.6667 37.9167 40.4167 38.75 41.25C39.1667 41.5833 39.4583 41.9167 39.625 42.25C39.7917 42.5833 40.0833 42.8333 40.5 43ZM87 2.875C86.9167 3.875 86.9583 4.625 87.125 5.125C88.0417 4.79167 88.5417 4.66667 88.625 4.75C89.0417 4.5 89.3333 4.16667 89.5 3.75C89.6667 3.33333 89.9167 2.91667 90.25 2.5C90.5833 2.5 90.875 2.58333 91.125 2.75C91.375 2.83333 91.5833 2.91667 91.75 3C93.0833 2.58333 93.9167 2.70833 94.25 3.375C95.1667 2.95833 95.875 2.875 96.375 3.125C96.875 3.29167 97.3333 3.41667 97.75 3.5C98 3.66667 98.2083 3.83333 98.375 4C98.5417 4.16667 98.7917 4.29167 99.125 4.375C99.4583 7.95833 99.6667 11.5417 99.75 15.125C99.8333 18.7083 99.875 22.3333 99.875 26C99.875 28.3333 99.7917 30.6667 99.625 33C99.5417 35.25 99.5 37.5 99.5 39.75C99.5 40.6667 99.5417 41.5417 99.625 42.375C99.7083 43.125 99.75 43.9167 99.75 44.75C99.75 45.4167 99.7083 46.0417 99.625 46.625C99.625 47.2083 99.625 47.7917 99.625 48.375C99.625 49.9583 99.625 51.5 99.625 53C99.7083 54.5 99.75 56.0417 99.75 57.625V61C99.75 61.6667 99.75 62.2917 99.75 62.875C99.8333 63.375 99.875 63.9167 99.875 64.5C99.875 65.5 99.8333 66.5417 99.75 67.625C99.75 68.625 99.75 69.6667 99.75 70.75C99.75 71.75 99.7917 72.7083 99.875 73.625C100.042 74.5417 100.125 75.4583 100.125 76.375C100.125 79.0417 100.083 81.6667 100 84.25C99.9167 86.75 99.9167 89.2917 100 91.875C99.8333 92.125 99.625 92.375 99.375 92.625C99.2083 92.7917 99.0833 92.9583 99 93.125C98.8333 93.5417 98.7083 93.9583 98.625 94.375C98.5417 94.7917 98.2917 95.1667 97.875 95.5C97.2917 95.5 96.9167 95.375 96.75 95.125C96.6667 94.875 96.4583 94.6667 96.125 94.5C95.2917 94.6667 94.4583 94.8333 93.625 95C92.875 95.0833 92.0417 95.25 91.125 95.5C90.875 95.3333 90.5833 95.2083 90.25 95.125C90 94.9583 89.7083 94.875 89.375 94.875C88.7083 94.7917 88.375 94.5833 88.375 94.25C88.375 93.9167 88.25 93.7083 88 93.625C87.5833 93.7083 87.25 93.9167 87 94.25C86.75 94.5 86.2917 94.625 85.625 94.625C85.375 94.625 85.0833 94.4583 84.75 94.125C84.4167 93.7083 84.1667 93.3333 84 93V91.625C84 90.7917 83.9167 90.1667 83.75 89.75C84 87.9167 84.125 85.9583 84.125 83.875C84.125 81.7083 84.125 79.7083 84.125 77.875C84.125 76.7083 84.0833 75.625 84 74.625C83.9167 73.625 83.8333 72.5417 83.75 71.375C83.6667 70.2083 83.6667 69 83.75 67.75C83.8333 66.4167 83.875 65.1667 83.875 64C83.875 61.5833 83.8333 59.2083 83.75 56.875C83.6667 54.4583 83.625 52.0417 83.625 49.625C83.625 48.7083 83.6667 47.7917 83.75 46.875C83.9167 45.875 84 44.8333 84 43.75C84 42.5833 83.9583 41.4583 83.875 40.375C83.875 39.2083 83.875 38.0417 83.875 36.875C83.875 34.2917 84 31.625 84.25 28.875C84.0833 28.625 84 28.375 84 28.125C84 27.7917 83.9167 27.5417 83.75 27.375C83.5 27.4583 83.3333 27.625 83.25 27.875C83.1667 28.0417 83.0417 28.25 82.875 28.5C82.5417 28.6667 82.25 28.9167 82 29.25C81.8333 29.5 81.6667 29.75 81.5 30C80.8333 30.3333 80.25 30.7083 79.75 31.125C79.25 31.4583 78.6667 31.75 78 32C77.5833 31.9167 77.25 31.75 77 31.5C76.8333 31.25 76.6667 31 76.5 30.75C75.8333 30.5 75.1667 30.1667 74.5 29.75C73.9167 29.3333 73.2917 29 72.625 28.75C72.2917 28.0833 71.8333 27.5833 71.25 27.25C70.75 26.8333 70.375 26.3333 70.125 25.75C69.4583 25.5833 68.7917 25.25 68.125 24.75C67.5417 24.1667 67.25 23.5417 67.25 22.875C67.25 22.2917 67.5 21.75 68 21.25C68.5 20.75 68.75 20.1667 68.75 19.5C70 17.75 71.2917 16.0833 72.625 14.5C73.9583 12.8333 75.2083 11.1667 76.375 9.5C77.0417 9.08333 77.625 8.58333 78.125 8C78.625 7.41667 79.125 6.875 79.625 6.375C79.9583 6.29167 80.2083 6.16667 80.375 6C80.5417 5.75 80.8333 5.54167 81.25 5.375C82.1667 5.45833 82.7917 5.41667 83.125 5.25C83.5417 5.08333 83.9167 4.91667 84.25 4.75C84.25 4.33333 84.2917 3.95833 84.375 3.625C84.4583 3.20833 84.5833 2.79167 84.75 2.375C86 2.20833 86.75 2.375 87 2.875Z" fill="black"/>
</svg>
