<svg width="800" height="800" viewBox="0 0 256 256" xmlns="http://www.w3.org/2000/svg"
    xmlns:xlink="http://www.w3.org/1999/xlink" preserveAspectRatio="xMidYMid">
    <g>
        <path
            d="M119.616813.0688905149C119.066276.118932037 117.314565.294077364 115.738025.419181169 79.3775171 3.69690087 45.3192571 23.3131775 23.7481916 53.4631946 11.7364614 70.2271045 4.05395894 89.2428829 1.15112414 109.384595.12512219 116.415429.0 118.492153.0 128.025062.0 137.557972.12512219 139.634696 1.15112414 146.665529 8.10791789 194.730411 42.3163245 235.11392 88.7116325 250.076335 97.0197458 252.753556 105.778299 254.580072 115.738025 255.680985c3.878788.425353000000001 20.645162.425353000000001 24.52395.0 17.191788-1.901578 31.756011-6.15510699999999 46.120039-13.48619C188.584164 241.068861 189.00958 240.768612 188.709286 240.518404 188.509091 240.36828 179.124927 227.782837 167.86393 212.570214l-20.469991-27.647941-25.650048-37.956494c-14.113783-20.867315-25.7251227-37.931474-25.8252204-37.931474C95.8185728 109.009284 95.7184751 125.873277 95.6684262 146.465363 95.5933529 182.52028 95.5683284 183.971484 95.1178886 184.82219 94.4672532 186.048207 93.9667644 186.548623 92.915738 187.099079 92.114956 187.499411 91.4142717 187.574474 87.6355816 187.574474H83.3063539L82.1552297 186.848872C81.4044966 186.373477 80.8539589 185.747958 80.4785924 185.022356L79.9530792 183.896422 80.0031281 133.729796 80.0782014 83.5381493 80.8539589 82.5623397C81.25435 82.0369037 82.1051808 81.3613431 82.7057674 81.0360732 83.7317693 80.535658 84.1321603 80.4856165 88.4613881 80.4856165 93.5663734 80.4856165 94.4172043 80.6857826 95.7434995 82.1369867 96.1188661 82.5373189 110.007429 103.454675 126.623656 128.650581c16.616227 25.195907 39.338416 59.599453 50.499316 76.488467l20.269794 30.700474L198.418768 235.163961C207.502639 229.259062 217.112023 220.852086 224.719453 212.09482c16.190811-18.590426 26.626002-41.259235 30.129423-65.429291C255.874878 139.634696 256 137.557972 256 128.025062 256 118.492153 255.874878 116.415429 254.848876 109.384595c-6.956794-48.0648815-41.165201-88.4483898-87.560508-103.41080488C159.105376 3.32158945 150.396872 1.49507389 140.637341.394160408 138.234995.143952798 121.693842-.131275573 119.616813.0688905149zM172.017986 77.4831252C173.219159 78.0836234 174.195112 79.2345784 174.545455 80.435575 174.74565 81.0861148 174.795699 94.9976579 174.74565 126.348671L174.670577 171.336 166.73783 159.17591 158.780059 147.01582V114.313685C158.780059 93.1711423 158.880156 81.2862808 159.030303 80.7108033 159.430694 79.3096407 160.306549 78.2087272 161.507722 77.5581875 162.533724 77.0327515 162.909091 76.98271 166.837928 76.98271 170.541544 76.98271 171.19218 77.0327515 172.017986 77.4831252z"
            fill="#fff"></path>
    </g>
</svg>